<svg width="12" height="15" viewBox="0 0 12 15" fill="none" xmlns="http://www.w3.org/2000/svg">
<path d="M0.5 1.875V13.125C0.5 13.6223 0.697544 14.0992 1.04917 14.4508C1.40081 14.8025 1.87772 15 2.375 15H11.2812C11.4056 15 11.5248 14.9506 11.6127 14.8627C11.7006 14.7748 11.75 14.6556 11.75 14.5312C11.75 14.4069 11.7006 14.2877 11.6127 14.1998C11.5248 14.1119 11.4056 14.0625 11.2812 14.0625H2.375C2.12636 14.0625 1.8879 13.9637 1.71209 13.7879C1.53627 13.6121 1.4375 13.3736 1.4375 13.125H10.8125C11.0611 13.125 11.2996 13.0262 11.4754 12.8504C11.6512 12.6746 11.75 12.4361 11.75 12.1875V1.875C11.75 1.37772 11.5525 0.900805 11.2008 0.549175C10.8492 0.197544 10.3723 0 9.875 0H2.375C1.87772 0 1.40081 0.197544 1.04917 0.549175C0.697544 0.900805 0.5 1.37772 0.5 1.875ZM9.875 0.9375C10.1236 0.9375 10.3621 1.03627 10.5379 1.21209C10.7137 1.3879 10.8125 1.62636 10.8125 1.875V12.1875H1.4375V1.875C1.4375 1.62636 1.53627 1.3879 1.71209 1.21209C1.8879 1.03627 2.12636 0.9375 2.375 0.9375H9.875Z" fill="#777777"/>
<path d="M2.43359 2.81098C2.43359 2.56248 2.5354 2.32415 2.7166 2.14844C2.89781 1.97272 3.14358 1.874 3.39985 1.874H9.1974C9.45366 1.874 9.69943 1.97272 9.88064 2.14844C10.0619 2.32415 10.1637 2.56248 10.1637 2.81098V3.74796C10.1637 3.99646 10.0619 4.23478 9.88064 4.4105C9.69943 4.58622 9.45366 4.68493 9.1974 4.68493H3.39985C3.14358 4.68493 2.89781 4.58622 2.7166 4.4105C2.5354 4.23478 2.43359 3.99646 2.43359 3.74796V2.81098ZM3.39985 2.81098V3.74796H9.1974V2.81098H3.39985Z" fill="#777777"/>
</svg>
