<svg width="12" height="12" viewBox="0 0 12 12" fill="none" xmlns="http://www.w3.org/2000/svg">
	<path fill-rule="evenodd" clip-rule="evenodd" d="M5.3933 10.0012L6.16105 9.23898C6.274 9.12596 6.42719 9.06247 6.58692 9.06247C6.74665 9.06247 6.89983 9.12596 7.01278 9.23898C7.12573 9.35199 7.18918 9.50527 7.18918 9.6651C7.18918 9.82493 7.12573 9.97822 7.01278 10.0912L6.16105 10.9435C5.79517 11.3071 5.35615 11.5887 4.87316 11.7695C4.39017 11.9502 3.87426 12.0261 3.3597 11.9921C2.84515 11.958 2.34373 11.8148 1.88874 11.5719C1.43376 11.329 1.03563 10.9921 0.720806 10.5834C0.190369 9.86421 -0.0612535 8.97689 0.012654 8.08613C0.0865616 7.19538 0.480978 6.36172 1.12268 5.73993L1.88443 4.9717C1.94019 4.91545 2.00653 4.8708 2.07962 4.84033C2.15271 4.80986 2.23111 4.79417 2.31029 4.79417C2.38948 4.79417 2.46787 4.80986 2.54097 4.84033C2.61406 4.8708 2.6804 4.91545 2.73616 4.9717C2.79238 5.02749 2.837 5.09388 2.86745 5.16701C2.8979 5.24015 2.91358 5.3186 2.91358 5.39783C2.91358 5.47706 2.8979 5.55551 2.86745 5.62864C2.837 5.70178 2.79238 5.76816 2.73616 5.82396L1.88443 6.68221C1.64594 6.91839 1.45961 7.20201 1.33748 7.51473C1.21535 7.82745 1.16013 8.16233 1.17539 8.49774C1.19065 8.83314 1.27606 9.16162 1.42608 9.46194C1.57611 9.76226 1.78743 10.0278 2.04638 10.2413C2.53632 10.6196 3.14831 10.8042 3.7656 10.76C4.38289 10.7157 4.9623 10.4456 5.3933 10.0012ZM8.07255 0.0129126C8.96993 -0.0621923 9.86396 0.19215 10.5876 0.728432C10.9951 1.04347 11.331 1.44153 11.5731 1.89625C11.8152 2.35098 11.958 2.85199 11.9921 3.3661C12.0261 3.88021 11.9506 4.39569 11.7705 4.8784C11.5904 5.3611 11.3099 5.80001 10.9475 6.16606L10.0958 7.01831C10.04 7.07457 9.97369 7.11922 9.90059 7.14969C9.8275 7.18016 9.7491 7.19584 9.66992 7.19584C9.59074 7.19584 9.51234 7.18016 9.43925 7.14969C9.36616 7.11922 9.29982 7.07457 9.24406 7.01831C9.18784 6.96252 9.14322 6.89614 9.11277 6.823C9.08232 6.74986 9.06664 6.67142 9.06664 6.59219C9.06664 6.51295 9.08232 6.43451 9.11277 6.36137C9.14322 6.28823 9.18784 6.22185 9.24406 6.16606L10.0958 5.3078C10.3363 5.07149 10.5243 4.78713 10.6476 4.47325C10.7709 4.15937 10.8268 3.82301 10.8115 3.48609C10.7962 3.14918 10.7102 2.81926 10.5589 2.51785C10.4077 2.21643 10.1947 1.95028 9.93384 1.73673C9.44588 1.35625 8.83432 1.17021 8.21729 1.21455C7.60025 1.25889 7.02154 1.53046 6.59291 1.97681L5.81317 2.76304C5.75741 2.81929 5.69107 2.86394 5.61797 2.89441C5.54488 2.92488 5.46648 2.94057 5.3873 2.94057C5.30812 2.94057 5.22972 2.92488 5.15663 2.89441C5.08354 2.86394 5.0172 2.81929 4.96144 2.76304C4.90027 2.6949 4.85409 2.61466 4.82588 2.52752C4.79767 2.44039 4.78805 2.34829 4.79767 2.25721C4.80728 2.16612 4.8359 2.07806 4.88168 1.99874C4.92745 1.91943 4.98937 1.85061 5.06341 1.79675L5.7112 1.13655C6.33578 0.487433 7.17516 0.0880175 8.07255 0.0129126ZM4.3678 6.77212L6.76702 4.3714C6.87997 4.25839 7.03316 4.19489 7.19289 4.19489C7.35262 4.19489 7.5058 4.25839 7.61875 4.3714C7.73169 4.48442 7.79515 4.6377 7.79515 4.79753C7.79515 4.95736 7.73169 5.11064 7.61875 5.22366L5.21952 7.62437C5.16376 7.68063 5.09742 7.72528 5.02433 7.75575C4.95124 7.78622 4.87284 7.80191 4.79366 7.80191C4.71448 7.80191 4.63608 7.78622 4.56299 7.75575C4.48989 7.72528 4.42356 7.68063 4.3678 7.62437C4.31158 7.56858 4.26695 7.5022 4.2365 7.42906C4.20605 7.35592 4.19037 7.27748 4.19037 7.19825C4.19037 7.11902 4.20605 7.04057 4.2365 6.96743C4.26695 6.89429 4.31158 6.82791 4.3678 6.77212Z" fill="#2F80ED"/>
</svg>
