<svg width="12" height="13" viewBox="0 0 12 13" fill="none" xmlns="http://www.w3.org/2000/svg">
<path d="M11.3315 2.44434H10.1141V3.19199H11.2379V11.4162H0.749281V3.19199H1.87306V2.44434H0.655633C0.568067 2.4458 0.481648 2.46446 0.40131 2.49925C0.320972 2.53405 0.24829 2.5843 0.187416 2.64713C0.126541 2.70997 0.0786661 2.78415 0.0465254 2.86545C0.0143848 2.94675 -0.00139197 3.03358 9.62894e-05 3.12096V11.4872C-0.00139197 11.5746 0.0143848 11.6614 0.0465254 11.7427C0.0786661 11.824 0.126541 11.8982 0.187416 11.9611C0.24829 12.0239 0.320972 12.0741 0.40131 12.1089C0.481648 12.1437 0.568067 12.1624 0.655633 12.1639H11.3315C11.4191 12.1624 11.5055 12.1437 11.5858 12.1089C11.6662 12.0741 11.7389 12.0239 11.7997 11.9611C11.8606 11.8982 11.9085 11.824 11.9406 11.7427C11.9728 11.6614 11.9885 11.5746 11.9871 11.4872V3.12096C11.9885 3.03358 11.9728 2.94675 11.9406 2.86545C11.9085 2.78415 11.8606 2.70997 11.7997 2.64713C11.7389 2.5843 11.6662 2.53405 11.5858 2.49925C11.5055 2.46446 11.4191 2.4458 11.3315 2.44434Z" fill="#999999"/>
<path d="M2.24609 5.43555H2.99527V6.1832H2.24609V5.43555Z" fill="#999999"/>
<path d="M4.49609 5.43555H5.24628V6.1832H4.49609V5.43555Z" fill="#999999"/>
<path d="M6.74219 5.43555H7.49237V6.1832H6.74219V5.43555Z" fill="#999999"/>
<path d="M8.99219 5.43555H9.74137V6.1832H8.99219V5.43555Z" fill="#999999"/>
<path d="M2.24609 7.30469H2.99527V8.05235H2.24609V7.30469Z" fill="#999999"/>
<path d="M4.49609 7.30469H5.24628V8.05234H4.49609V7.30469Z" fill="#999999"/>
<path d="M6.74219 7.30469H7.49237V8.05234H6.74219V7.30469Z" fill="#999999"/>
<path d="M8.99219 7.30469H9.74137V8.05235H8.99219V7.30469Z" fill="#999999"/>
<path d="M2.24609 9.17383H2.99527V9.92148H2.24609V9.17383Z" fill="#999999"/>
<path d="M4.49609 9.17383H5.24628V9.92148H4.49609V9.17383Z" fill="#999999"/>
<path d="M6.74219 9.17383H7.49237V9.92148H6.74219V9.17383Z" fill="#999999"/>
<path d="M8.99219 9.17383H9.74137V9.92148H8.99219V9.17383Z" fill="#999999"/>
<path d="M2.99569 3.93983C3.09503 3.93983 3.19031 3.90045 3.26056 3.83034C3.33081 3.76024 3.37028 3.66515 3.37028 3.56601V1.32305C3.37028 1.2239 3.33081 1.12882 3.26056 1.05871C3.19031 0.988604 3.09503 0.949219 2.99569 0.949219C2.89634 0.949219 2.80106 0.988604 2.73081 1.05871C2.66056 1.12882 2.62109 1.2239 2.62109 1.32305V3.56601C2.62109 3.66515 2.66056 3.76024 2.73081 3.83034C2.80106 3.90045 2.89634 3.93983 2.99569 3.93983Z" fill="#999999"/>
<path d="M8.99178 3.93983C9.09113 3.93983 9.18641 3.90045 9.25666 3.83034C9.32691 3.76024 9.36637 3.66515 9.36637 3.56601V1.32305C9.36637 1.2239 9.32691 1.12882 9.25666 1.05871C9.18641 0.988604 9.09113 0.949219 8.99178 0.949219C8.89243 0.949219 8.79715 0.988604 8.7269 1.05871C8.65665 1.12882 8.61719 1.2239 8.61719 1.32305V3.56601C8.61719 3.66515 8.65665 3.76024 8.7269 3.83034C8.79715 3.90045 8.89243 3.93983 8.99178 3.93983Z" fill="#999999"/>
<path d="M4.12109 2.44434H7.86702V3.19199H4.12109V2.44434Z" fill="#999999"/>
</svg>
