<svg width="69" height="69" viewBox="0 0 69 69" fill="none" xmlns="http://www.w3.org/2000/svg">
<g filter="url(#filter0_d_21_15)">
<rect x="9" y="9" width="45" height="45" rx="5" fill="white"/>
</g>
<g clip-path="url(#clip0_21_15)">
<rect width="27" height="27" transform="translate(18 18)" fill="white"/>
<path d="M43.5098 45.0001C44.3327 45.0001 45 44.3329 45 43.5099V19.4902C45 18.6671 44.3327 18 43.5098 18H19.4901C18.667 18 18 18.6671 18 19.4902V43.5099C18 44.3329 18.667 45.0001 19.4901 45.0001H43.5098Z" fill="#395185"/>
<path d="M36.6294 45.0001V34.5442H40.1391L40.6646 30.4695H36.6294V27.8678C36.6294 26.688 36.9571 25.884 38.6489 25.884L40.8067 25.883V22.2386C40.4334 22.1889 39.1526 22.0779 37.6625 22.0779C34.5514 22.0779 32.4215 23.9769 32.4215 27.4643V30.4695H28.9029V34.5442H32.4215V45.0001H36.6294Z" fill="white"/>
</g>
<defs>
<filter id="filter0_d_21_15" x="0" y="0" width="69" height="69" filterUnits="userSpaceOnUse" color-interpolation-filters="sRGB">
<feFlood flood-opacity="0" result="BackgroundImageFix"/>
<feColorMatrix in="SourceAlpha" type="matrix" values="0 0 0 0 0 0 0 0 0 0 0 0 0 0 0 0 0 0 127 0" result="hardAlpha"/>
<feOffset dx="3" dy="3"/>
<feGaussianBlur stdDeviation="6"/>
<feColorMatrix type="matrix" values="0 0 0 0 0 0 0 0 0 0 0 0 0 0 0 0 0 0 0.15 0"/>
<feBlend mode="normal" in2="BackgroundImageFix" result="effect1_dropShadow_21_15"/>
<feBlend mode="normal" in="SourceGraphic" in2="effect1_dropShadow_21_15" result="shape"/>
</filter>
<clipPath id="clip0_21_15">
<rect width="27" height="27" fill="white" transform="translate(18 18)"/>
</clipPath>
</defs>
</svg>
