<svg width="69" height="69" viewBox="0 0 69 69" fill="none" xmlns="http://www.w3.org/2000/svg">
<g filter="url(#filter0_d_21_4)">
<rect x="9" y="9" width="45" height="45" rx="5" fill="white"/>
</g>
<path d="M42.5312 29.2967H41.625V29.25H31.5V33.75H37.8579C36.9303 36.3696 34.4379 38.25 31.5 38.25C27.7723 38.25 24.75 35.2277 24.75 31.5C24.75 27.7723 27.7723 24.75 31.5 24.75C33.2207 24.75 34.7861 25.3991 35.978 26.4594L39.1601 23.2774C37.1508 21.4048 34.4632 20.25 31.5 20.25C25.2872 20.25 20.25 25.2872 20.25 31.5C20.25 37.7128 25.2872 42.75 31.5 42.75C37.7128 42.75 42.75 37.7128 42.75 31.5C42.75 30.7457 42.6723 30.0094 42.5312 29.2967Z" fill="#FFC107"/>
<path d="M21.5471 26.2637L25.2433 28.9744C26.2434 26.4983 28.6655 24.75 31.5 24.75C33.2207 24.75 34.7861 25.3991 35.978 26.4594L39.1601 23.2774C37.1508 21.4048 34.4632 20.25 31.5 20.25C27.1788 20.25 23.4315 22.6896 21.5471 26.2637Z" fill="#FF3D00"/>
<path d="M31.5 42.75C34.4058 42.75 37.0462 41.638 39.0425 39.8295L35.5606 36.8831C34.3932 37.771 32.9667 38.2512 31.5 38.25C28.5738 38.25 26.0893 36.3842 25.1533 33.7804L21.4846 36.607C23.3465 40.2503 27.1276 42.75 31.5 42.75Z" fill="#4CAF50"/>
<path d="M42.5312 29.2967H41.625V29.25H31.5V33.75H37.8579C37.4142 34.9967 36.615 36.0862 35.559 36.8837L35.5607 36.8826L39.0425 39.8289C38.7962 40.0528 42.75 37.125 42.75 31.5C42.75 30.7457 42.6723 30.0094 42.5312 29.2967Z" fill="#1976D2"/>
<defs>
<filter id="filter0_d_21_4" x="0" y="0" width="69" height="69" filterUnits="userSpaceOnUse" color-interpolation-filters="sRGB">
<feFlood flood-opacity="0" result="BackgroundImageFix"/>
<feColorMatrix in="SourceAlpha" type="matrix" values="0 0 0 0 0 0 0 0 0 0 0 0 0 0 0 0 0 0 127 0" result="hardAlpha"/>
<feOffset dx="3" dy="3"/>
<feGaussianBlur stdDeviation="6"/>
<feColorMatrix type="matrix" values="0 0 0 0 0 0 0 0 0 0 0 0 0 0 0 0 0 0 0.15 0"/>
<feBlend mode="normal" in2="BackgroundImageFix" result="effect1_dropShadow_21_4"/>
<feBlend mode="normal" in="SourceGraphic" in2="effect1_dropShadow_21_4" result="shape"/>
</filter>
</defs>
</svg>
