<svg width="17" height="14" viewBox="0 0 17 14" fill="none" xmlns="http://www.w3.org/2000/svg">
<path fill-rule="evenodd" clip-rule="evenodd" d="M9.21124 0.121191C9.04493 -0.040397 8.78026 -0.040397 8.61395 0.121191L1.00492 7.51405C0.835162 7.67899 0.831252 7.95031 0.996191 8.12008C1.16113 8.28984 1.43246 8.29375 1.60222 8.12881L2.56593 7.19248V12.75C2.56593 13.0855 2.70324 13.4048 2.94347 13.6382C3.18329 13.8712 3.50598 14 3.83994 14H6.37628C6.71025 14 7.03294 13.8712 7.27275 13.6382C7.51298 13.4048 7.6503 13.0855 7.6503 12.75V9.46426C7.6503 9.36412 7.69113 9.26549 7.768 9.1908C7.8453 9.11571 7.95269 9.0714 8.06718 9.0714H9.75807C9.87256 9.0714 9.97995 9.11571 10.0572 9.1908C10.1341 9.26549 10.1749 9.36412 10.1749 9.46426V12.75C10.1749 13.0855 10.3123 13.4048 10.5525 13.6382C10.7923 13.8712 11.115 14 11.449 14H13.9853C14.3193 14 14.642 13.8712 14.8818 13.6382C15.122 13.4048 15.2593 13.0855 15.2593 12.75V7.19254L16.223 8.12881C16.3927 8.29375 16.6641 8.28984 16.829 8.12008C16.9939 7.95031 16.99 7.67899 16.8203 7.51405L15.1334 5.87514C15.1307 5.87246 15.128 5.86981 15.1253 5.86719L9.21124 0.121191ZM14.4022 6.35975L8.9126 1.02612L3.42307 6.35969V12.75C3.42307 12.8501 3.4639 12.9487 3.54077 13.0234C3.61806 13.0985 3.72546 13.1428 3.83994 13.1428H6.37628C6.49077 13.1428 6.59816 13.0985 6.67546 13.0234C6.75233 12.9487 6.79316 12.8501 6.79316 12.75V9.46426C6.79316 9.12869 6.93048 8.80945 7.17071 8.57604C7.41052 8.34305 7.73321 8.21426 8.06718 8.21426H9.75807C10.092 8.21426 10.4147 8.34305 10.6545 8.57604C10.8948 8.80945 11.0321 9.12869 11.0321 9.46426V12.75C11.0321 12.8501 11.0729 12.9487 11.1498 13.0234C11.2271 13.0985 11.3345 13.1428 11.449 13.1428H13.9853C14.0998 13.1428 14.2072 13.0985 14.2845 13.0234C14.3614 12.9487 14.4022 12.8501 14.4022 12.75V6.35975Z" fill="#777777"/>
</svg>
