<svg width="729" height="645" viewBox="0 0 729 645" fill="none" xmlns="http://www.w3.org/2000/svg">
<g clip-path="url(#clip0_135_12)">
<rect width="729" height="645" fill="white"/>
<path d="M361.71 2.06217C363.643 -1.28588 367.924 -2.433 371.272 -0.5L908.561 309.704C911.909 311.637 913.057 315.918 911.124 319.266L737.494 620.002C735.273 623.849 729.378 621.557 730.338 617.22C753.848 511.047 664.555 413.861 556.775 428.314L445.397 443.25C344.693 451.15 246.41 409.734 181.732 332.142L175.854 325.089C175.625 324.815 175.592 324.428 175.771 324.119L361.71 2.06217Z" fill="#2F80ED" fill-opacity="0.5"/>
<path d="M0 -40C0 -43.866 3.13401 -47 7 -47H722C725.866 -47 729 -43.866 729 -40V294.858C729 299.766 722.189 301.003 720.462 296.409C680.566 190.262 552.787 148.153 457.6 209.785L336.766 288.023C239.501 344.122 123.266 357.18 15.9781 324.059L0.802109 319.374C0.325249 319.226 0 318.786 0 318.287V-40Z" fill="#2F80ED"/>
</g>
<defs>
<clipPath id="clip0_135_12">
<rect width="729" height="645" fill="white"/>
</clipPath>
</defs>
</svg>
